# xmcd CD database file
#
# Track frame offsets:
#	150
#	17728
#	35919
#
# Disc length: 622 seconds
#
# Revision: 0
# Processed by: cddbd v1.5.1PL0 Copyright (c) Steve Scherf et al.
# Submitted via: CDex 1.51
#
DISCID=20026c03
DTITLE=テックウィンDVD - 音楽CD VOL.2 葉山宏治スペシャルシングル！
DYEAR=2005
DGENRE=Game
TTITLE0=気合いDaaA!!
TTITLE1=トランス前夜
TTITLE2=EGGのテーマ
EXTD=YEAR: 2005
EXTT0=
EXTT1=
EXTT2=
PLAYORDER=
